<svg width="61" height="76" viewBox="0 0 61 76" fill="none" xmlns="http://www.w3.org/2000/svg">
<path d="M50.5299 10.4798L50.3417 10.2917C45.0735 4.83525 38.1119 1.63672 30.2096 1.63672C22.3072 1.63672 15.3456 4.83525 10.0774 10.1035L9.88921 10.4798C4.8092 15.748 1.6106 23.0859 1.6106 31.1764C1.6106 39.2668 4.80913 46.6049 9.88921 51.8731L10.0774 52.0612L30.2096 73.1341L50.3417 52.2494L50.5299 52.0612C55.6099 46.793 58.8085 39.4551 58.8085 31.1765C58.8085 23.0859 55.61 15.748 50.5299 10.4798ZM30.2096 39.6433C24.7532 39.6433 20.2376 34.9394 20.2376 29.295C20.2376 26.849 20.9902 24.7793 22.3072 23.0859C24.1887 20.64 27.011 18.9466 30.2096 18.9466C35.6659 18.9466 40.1816 23.6504 40.1816 29.2949C40.1816 34.9394 35.6659 39.6433 30.2096 39.6433Z" fill="#FF0099" stroke="#F5C9FF" stroke-width="3"/>
</svg>
