<svg width="61" height="76" viewBox="0 0 61 76" fill="none" xmlns="http://www.w3.org/2000/svg">
<g clip-path="url(#clip0_1612_58)">
<path d="M50.5301 10.4798L50.3419 10.2917C45.0737 4.83525 38.1121 1.63672 30.2098 1.63672C22.3074 1.63672 15.3458 4.83525 10.0776 10.1035L9.88945 10.4798C4.80944 15.748 1.61084 23.0859 1.61084 31.1764C1.61084 39.2668 4.80937 46.6049 9.88945 51.8731L10.0776 52.0612L30.2098 73.1341L50.3419 52.2494L50.5301 52.0612C55.6101 46.793 58.8087 39.4551 58.8087 31.1765C58.8087 23.0859 55.6102 15.748 50.5301 10.4798ZM30.2098 39.6433C24.7534 39.6433 20.2378 34.9394 20.2378 29.295C20.2378 26.849 20.9904 24.7793 22.3074 23.0859C24.1889 20.64 27.0112 18.9466 30.2098 18.9466C35.6661 18.9466 40.1818 23.6504 40.1818 29.2949C40.1818 34.9394 35.6661 39.6433 30.2098 39.6433Z" fill="#0055FF" stroke="#8DD3FF" stroke-width="3"/>
</g>
<defs>
<clipPath id="clip0_1612_58">
<rect width="61" height="76" fill="white"/>
</clipPath>
</defs>
</svg>
