<svg width="61" height="76" viewBox="0 0 61 76" fill="none" xmlns="http://www.w3.org/2000/svg">
<path d="M50.4193 10.3431L50.2311 10.155C44.9629 4.69853 38.0013 1.5 30.099 1.5C22.1966 1.5 15.235 4.69853 9.9668 9.96678L9.77861 10.3431C4.6986 15.6113 1.5 22.9492 1.5 31.0397C1.5 39.1301 4.69853 46.4682 9.77861 51.7364L9.9668 51.9245L30.099 72.9974L50.2311 52.1127L50.4193 51.9245C55.4993 46.6563 58.6979 39.3184 58.6979 31.0398C58.6979 22.9492 55.4994 15.6113 50.4193 10.3431Z" fill="#FF0099" stroke="#F5C9FF" stroke-width="3"/>
<path d="M44.0742 15.8025V38.2872C44.0742 38.9596 43.8445 39.5526 43.3893 40.0746C42.9341 40.5967 42.3578 41.0018 41.6646 41.2899C40.9671 41.5781 40.2739 41.7911 39.589 41.9331C38.8999 42.0709 38.2568 42.146 37.6512 42.146C37.0457 42.146 36.4025 42.0751 35.7134 41.9331C35.0244 41.7952 34.3311 41.5781 33.6379 41.2899C32.9446 41.0018 32.3683 40.5967 31.9131 40.0746C31.4579 39.5526 31.2282 38.9554 31.2282 38.2872C31.2282 37.619 31.4579 37.0218 31.9131 36.4998C32.3683 35.9778 32.9446 35.5769 33.6379 35.2845C34.3353 34.9964 35.0285 34.7834 35.7134 34.6414C36.4025 34.5036 37.0457 34.4284 37.6512 34.4284C39.0586 34.4284 40.3407 34.6915 41.5059 35.2093V24.4389L26.0873 29.1956V43.4281C26.0873 44.0963 25.8576 44.6935 25.4024 45.2156C24.9472 45.7376 24.3708 46.1385 23.6776 46.4308C22.9802 46.719 22.2869 46.932 21.602 47.074C20.9129 47.2118 20.2698 47.287 19.6642 47.287C19.0587 47.287 18.4155 47.216 17.7265 47.074C17.0374 46.9362 16.3441 46.719 15.6509 46.4308C14.9576 46.1427 14.3813 45.7376 13.9261 45.2156C13.4709 44.6935 13.2412 44.0963 13.2412 43.4281C13.2412 42.7558 13.4709 42.1628 13.9261 41.6407C14.3813 41.1187 14.9576 40.7178 15.6509 40.4254C16.3483 40.1373 17.0416 39.9243 17.7265 39.7823C18.4155 39.6445 19.0587 39.5693 19.6642 39.5693C21.0716 39.5693 22.3537 39.8324 23.5189 40.3503V20.9392C23.5189 20.5258 23.6442 20.1457 23.8989 19.8033C24.1537 19.4608 24.4836 19.2228 24.8845 19.0891L41.5852 13.9524C41.7439 13.8981 41.9318 13.873 42.1448 13.873C42.6794 13.873 43.1388 14.0568 43.5104 14.4327C43.8905 14.8127 44.0742 15.2721 44.0742 15.8025Z" fill="#F5C9FF"/>
</svg>
