<svg width="61" height="76" viewBox="0 0 61 76" fill="none" xmlns="http://www.w3.org/2000/svg">
<path d="M50.4193 10.3431L50.2311 10.155C44.9629 4.69853 38.0013 1.5 30.099 1.5C22.1966 1.5 15.235 4.69853 9.9668 9.96678L9.77861 10.3431C4.6986 15.6113 1.5 22.9492 1.5 31.0397C1.5 39.1301 4.69853 46.4682 9.77861 51.7364L9.9668 51.9245L30.099 72.9974L50.2311 52.1127L50.4193 51.9245C55.4993 46.6563 58.6979 39.3184 58.6979 31.0398C58.6979 22.9492 55.4994 15.6113 50.4193 10.3431Z" fill="#0055FF" stroke="#92D5FF" stroke-width="3"/>
<path d="M40.0059 16.8823C44.9033 16.8823 48.8857 20.8648 48.8857 25.7622V35.1118C48.8857 40.0092 44.9033 43.9927 40.0059 43.9927H35.1836C34.0325 43.9927 32.9467 44.4415 32.1328 45.2554L27.0811 50.3042C26.7705 50.6147 26.3635 50.77 25.9541 50.77C25.548 50.77 25.1425 50.6145 24.8291 50.3052L24.8281 50.3042C24.2071 49.6831 24.2071 48.6762 24.8281 48.0552L29.8799 43.0024C31.2945 41.5878 33.1785 40.8081 35.1807 40.8081H40.0059C43.1475 40.8081 45.7016 38.2537 45.7051 35.1118V25.7622C45.705 22.6206 43.1475 20.063 40.0059 20.063H21.1357C17.9942 20.063 15.4366 22.6206 15.4365 25.7622V35.1118C15.4365 38.2533 17.994 40.8081 21.1357 40.8081H23.7715C24.651 40.8081 25.3641 41.5204 25.3643 42.3999C25.3643 43.2796 24.6511 43.9927 23.7715 43.9927H21.1357C16.2385 43.9891 12.2559 40.0058 12.2559 35.1118V25.7622C12.2559 20.8649 16.2384 16.8824 21.1357 16.8823H40.0059Z" fill="#92D5FF" stroke="#92D5FF" stroke-width="0.35"/>
<path d="M23.874 28.7769C24.3958 28.7769 24.8966 28.984 25.2656 29.353C25.6345 29.722 25.8418 30.2228 25.8418 30.7446C25.8417 31.2664 25.6346 31.7673 25.2656 32.1362C24.8966 32.5052 24.3958 32.7123 23.874 32.7124C23.3522 32.7124 22.8514 32.5051 22.4824 32.1362C22.1134 31.7673 21.9063 31.2664 21.9062 30.7446C21.9062 30.2227 22.1134 29.7221 22.4824 29.353C22.8514 28.984 23.3521 28.7769 23.874 28.7769Z" fill="#92D5FF" stroke="#92D5FF" stroke-width="0.35"/>
<path d="M30.5732 28.7769C31.095 28.7769 31.5959 28.984 31.9648 29.353C32.3337 29.722 32.541 30.2228 32.541 30.7446C32.541 31.2664 32.3338 31.7673 31.9648 32.1362C31.5959 32.5052 31.095 32.7123 30.5732 32.7124C30.0515 32.7124 29.5506 32.5051 29.1816 32.1362C28.8127 31.7673 28.6055 31.2664 28.6055 30.7446C28.6055 30.2227 28.8126 29.7221 29.1816 29.353C29.5507 28.984 30.0514 28.7769 30.5732 28.7769Z" fill="#92D5FF" stroke="#92D5FF" stroke-width="0.35"/>
<path d="M37.2734 28.7769C37.5318 28.7769 37.7877 28.8274 38.0264 28.9263C38.2651 29.0252 38.4823 29.1703 38.665 29.353C38.8477 29.5357 38.992 29.753 39.0908 29.9917C39.1897 30.2304 39.2412 30.4863 39.2412 30.7446C39.2412 31.003 39.1897 31.2589 39.0908 31.4976C38.9919 31.7362 38.8477 31.9536 38.665 32.1362C38.4824 32.3189 38.265 32.4631 38.0264 32.562C37.7877 32.6609 37.5318 32.7124 37.2734 32.7124C37.0151 32.7124 36.7592 32.6609 36.5205 32.562C36.2819 32.4632 36.0645 32.3189 35.8818 32.1362C35.6991 31.9535 35.554 31.7363 35.4551 31.4976C35.3562 31.2589 35.3057 31.003 35.3057 30.7446C35.3057 30.4863 35.3563 30.2303 35.4551 29.9917C35.554 29.753 35.6991 29.5358 35.8818 29.353C36.0646 29.1703 36.2818 29.0252 36.5205 28.9263C36.7592 28.8275 37.0151 28.7769 37.2734 28.7769Z" fill="#92D5FF" stroke="#92D5FF" stroke-width="0.35"/>
</svg>
