<svg width="61" height="76" viewBox="0 0 61 76" fill="none" xmlns="http://www.w3.org/2000/svg">
<path d="M50.4193 10.3431L50.2311 10.155C44.9629 4.69853 38.0013 1.5 30.099 1.5C22.1966 1.5 15.235 4.69853 9.9668 9.96678L9.77861 10.3431C4.6986 15.6113 1.5 22.9492 1.5 31.0397C1.5 39.1301 4.69853 46.4682 9.77861 51.7364L9.9668 51.9245L30.099 72.9974L50.2311 52.1127L50.4193 51.9245C55.4993 46.6563 58.6979 39.3184 58.6979 31.0398C58.6979 22.9492 55.4994 15.6113 50.4193 10.3431Z" fill="#0055FF" stroke="#92D5FF" stroke-width="3"/>
<path d="M43.7448 17.0571H16.4535C15.7593 17.0571 15.0935 17.3329 14.6026 17.8238C14.1117 18.3147 13.8359 18.9805 13.8359 19.6747V42.3813C13.8521 43.0647 14.135 43.7147 14.6242 44.1923C15.1133 44.6698 15.7699 44.9371 16.4535 44.9369H43.7448C44.4284 44.9371 45.085 44.6698 45.5741 44.1923C46.0633 43.7147 46.3462 43.0647 46.3624 42.3813V19.6747C46.3624 19.331 46.2947 18.9906 46.1631 18.673C46.0316 18.3554 45.8387 18.0669 45.5957 17.8238C45.3526 17.5807 45.064 17.3879 44.7465 17.2564C44.4289 17.1248 44.0885 17.0571 43.7448 17.0571ZM39.4544 31.1829C39.2303 31.0169 38.9588 30.9273 38.6799 30.9273C38.4011 30.9273 38.1296 31.0169 37.9055 31.1829L32.2521 34.9931L24.2134 24.9719C24.0915 24.8385 23.9432 24.732 23.7778 24.6592C23.6125 24.5863 23.4338 24.5487 23.2531 24.5487C23.0724 24.5487 22.8937 24.5863 22.7284 24.6592C22.5631 24.732 22.4147 24.8385 22.2928 24.9719L16.4535 30.9041V19.6747H43.7448V32.9641L39.4544 31.1829Z" fill="#92D5FF"/>
<path d="M36.8515 22.354C36.1255 22.354 35.4158 22.5693 34.8121 22.9727C34.2084 23.376 33.7379 23.9493 33.4601 24.6201C33.1823 25.2908 33.1096 26.0289 33.2512 26.741C33.3928 27.4531 33.7425 28.1072 34.2558 28.6205C34.7692 29.1339 35.4233 29.4835 36.1354 29.6252C36.8475 29.7668 37.5855 29.6941 38.2563 29.4163C38.9271 29.1384 39.5004 28.6679 39.9037 28.0642C40.3071 27.4606 40.5224 26.7508 40.5224 26.0248C40.5223 25.0513 40.1356 24.1176 39.4472 23.4292C38.7588 22.7408 37.8251 22.354 36.8515 22.354V22.354ZM36.8515 27.0006C36.6432 27.0006 36.4396 26.9388 36.2664 26.8231C36.0932 26.7074 35.9582 26.5429 35.8785 26.3504C35.7987 26.158 35.7779 25.9462 35.8185 25.7419C35.8592 25.5376 35.9595 25.3499 36.1068 25.2026C36.2541 25.0553 36.4418 24.955 36.6461 24.9144C36.8504 24.8737 37.0622 24.8946 37.2546 24.9743C37.4471 25.054 37.6116 25.189 37.7273 25.3622C37.843 25.5354 37.9048 25.7391 37.9048 25.9474C37.9132 26.0908 37.8923 26.2345 37.8431 26.3695C37.794 26.5045 37.7177 26.6281 37.6191 26.7325C37.5204 26.837 37.4014 26.9202 37.2694 26.9769C37.1374 27.0337 36.9952 27.0628 36.8515 27.0626V27.0006Z" fill="#92D5FF"/>
</svg>
